<svg width="27" height="25" viewBox="0 0 27 25" fill="none" xmlns="http://www.w3.org/2000/svg">
<path d="M13.6824 0C11.9778 0 10.29 0.331349 8.71524 0.975129C7.14046 1.61891 5.70959 2.56251 4.50431 3.75206C2.07014 6.15446 0.702637 9.41282 0.702637 12.8103C0.702637 18.4725 4.42782 23.2764 9.58077 24.9802C10.2298 25.0826 10.4374 24.6855 10.4374 24.3396V22.1747C6.84205 22.9433 6.07624 20.4581 6.07624 20.4581C5.47918 18.9721 4.63549 18.575 4.63549 18.575C3.45434 17.7807 4.72635 17.8064 4.72635 17.8064C6.02433 17.896 6.71225 19.1258 6.71225 19.1258C7.84149 21.073 9.74951 20.4965 10.4894 20.1891C10.6062 19.3564 10.9436 18.7928 11.3071 18.4725C8.42558 18.1522 5.4013 17.0506 5.4013 12.1698C5.4013 10.7479 5.89453 9.60775 6.73821 8.69822C6.60841 8.37796 6.15412 7.04569 6.86801 5.31629C6.86801 5.31629 7.95831 4.97041 10.4374 6.62294C11.4628 6.34112 12.5791 6.2002 13.6824 6.2002C14.7856 6.2002 15.9019 6.34112 16.9273 6.62294C19.4064 4.97041 20.4967 5.31629 20.4967 5.31629C21.2106 7.04569 20.7563 8.37796 20.6265 8.69822C21.4702 9.60775 21.9634 10.7479 21.9634 12.1698C21.9634 17.0634 18.9262 18.1394 16.0317 18.4597C16.499 18.8568 16.9273 19.6382 16.9273 20.8296V24.3396C16.9273 24.6855 17.135 25.0954 17.7969 24.9802C22.9499 23.2636 26.6621 18.4725 26.6621 12.8103C26.6621 11.1281 26.3264 9.46225 25.6741 7.90803C25.0218 6.35381 24.0657 4.94161 22.8604 3.75206C21.6551 2.56251 20.2243 1.61891 18.6495 0.975129C17.0747 0.331349 15.3869 0 13.6824 0Z" fill="#D90004"/>
</svg>
