<svg width="31" height="25" viewBox="0 0 31 25" fill="none" xmlns="http://www.w3.org/2000/svg">
<path d="M3.51353 25C2.67366 25 1.95494 24.6943 1.35736 24.0828C0.759788 23.4714 0.460491 22.7354 0.459473 21.875V3.125C0.459473 2.26562 0.75877 1.53021 1.35736 0.91875C1.95596 0.307291 2.67468 0.00104167 3.51353 0H27.946C28.7858 0 29.5051 0.30625 30.1037 0.91875C30.7022 1.53125 31.001 2.26667 31 3.125V21.875C31 22.7344 30.7012 23.4703 30.1037 24.0828C29.5061 24.6953 28.7868 25.001 27.946 25H3.51353ZM15.7297 14.0625L27.946 6.25V3.125L15.7297 10.9375L3.51353 3.125V6.25L15.7297 14.0625Z" fill="#D90004"/>
</svg>
