<svg width="25" height="25" viewBox="0 0 25 25" fill="none" xmlns="http://www.w3.org/2000/svg">
<path d="M21.7177 0C22.4377 0 23.1282 0.292658 23.6373 0.813592C24.1464 1.33453 24.4324 2.04107 24.4324 2.77778V22.2222C24.4324 22.9589 24.1464 23.6655 23.6373 24.1864C23.1282 24.7073 22.4377 25 21.7177 25H2.71471C1.99473 25 1.30423 24.7073 0.795121 24.1864C0.286014 23.6655 0 22.9589 0 22.2222V2.77778C0 2.04107 0.286014 1.33453 0.795121 0.813592C1.30423 0.292658 1.99473 0 2.71471 0H21.7177ZM21.039 21.5278V14.1667C21.039 12.9658 20.5728 11.8142 19.743 10.965C18.9131 10.1159 17.7876 9.63889 16.6141 9.63889C15.4603 9.63889 14.1165 10.3611 13.465 11.4444V9.90278H9.67796V21.5278H13.465V14.6806C13.465 13.6111 14.3065 12.7361 15.3517 12.7361C15.8557 12.7361 16.3391 12.941 16.6954 13.3056C17.0518 13.6703 17.252 14.1649 17.252 14.6806V21.5278H21.039ZM5.26655 7.72222C5.87134 7.72222 6.45135 7.47639 6.879 7.0388C7.30666 6.60122 7.54691 6.00773 7.54691 5.38889C7.54691 4.09722 6.52889 3.04167 5.26655 3.04167C4.65816 3.04167 4.07469 3.28896 3.64449 3.72915C3.21429 4.16934 2.97261 4.76637 2.97261 5.38889C2.97261 6.68056 4.0042 7.72222 5.26655 7.72222ZM7.15327 21.5278V9.90278H3.39339V21.5278H7.15327Z" fill="#D90004"/>
</svg>
